<svg width="12" height="12" viewBox="0 0 12 12" fill="none" xmlns="http://www.w3.org/2000/svg">
<path fill-rule="evenodd" clip-rule="evenodd" d="M2.83631 1.51446C3.55206 1.16417 4.72631 0.75 6.01139 0.75C7.26964 0.75 8.41297 1.14696 9.12493 1.49258L9.16518 1.51212C9.37985 1.61829 9.5531 1.71863 9.67501 1.8L8.5976 3.375C11.0814 5.91425 13 11.2491 6.01139 11.2491C-0.977235 11.2491 0.889723 6.01108 3.39514 3.375L2.32472 1.8C2.40726 1.74604 2.51197 1.68333 2.63681 1.61683C2.69864 1.58358 2.76514 1.54946 2.83631 1.51475V1.51446ZM7.90518 3.354L8.76764 2.09312C7.96556 2.15087 7.01122 2.33929 6.09247 2.60529C5.43622 2.79487 4.70706 2.766 4.03185 2.64146C3.8617 2.60991 3.69272 2.57236 3.52522 2.52887L4.08522 3.35342C5.28543 3.78071 6.70468 3.78071 7.90518 3.354ZM3.74835 3.85042C5.15272 4.39292 6.8406 4.39292 8.24497 3.84983C8.83118 4.46779 9.32156 5.17003 9.69981 5.93321C10.0941 6.73762 10.3088 7.54175 10.2738 8.23475C10.24 8.90354 9.97689 9.47492 9.37606 9.89958C8.74985 10.342 7.69664 10.6658 6.0111 10.6658C4.32381 10.6658 3.26564 10.3476 2.6336 9.91008C2.02839 9.49067 1.76268 8.92717 1.72506 8.26742C1.68568 7.582 1.89568 6.78196 2.28856 5.972C2.66335 5.19967 3.18631 4.45621 3.74835 3.85042ZM3.41293 1.89217C3.64626 1.96158 3.8901 2.02196 4.13743 2.06775C4.76451 2.18325 5.39335 2.20017 5.93001 2.04471C6.55541 1.86252 7.19149 1.71923 7.8346 1.61567C7.29793 1.45408 6.67026 1.33333 6.0111 1.33333C5.00631 1.33333 4.06918 1.61363 3.41293 1.89217Z" fill="#433D4A" stroke="#433D4A"/>
</svg>
