<svg width="12" height="12" viewBox="0 0 12 12" fill="none" xmlns="http://www.w3.org/2000/svg">
<path d="M10.75 3.24667V3.53535L11 3.67968C11.0354 3.70012 11.0687 3.72367 11.0995 3.75H10.6667H6.58333H6.14447C6.26211 3.64646 6.41597 3.58333 6.58333 3.58333H10.0833H10.5833V3.08333V1.91667V1.4778C10.6869 1.59544 10.75 1.74931 10.75 1.91667V3.24667ZM11.1667 4.25V3.81606C11.1954 3.84865 11.221 3.8841 11.243 3.92196C11.3013 4.02215 11.3324 4.13579 11.3333 4.25167V7.74833C11.3324 7.86421 11.3013 7.97785 11.243 8.07804C11.221 8.1159 11.1954 8.15135 11.1667 8.18394V7.75V4.25ZM10.6667 8.25H11.0995C11.0687 8.27633 11.0354 8.29988 11 8.32032L10.75 8.46465V8.75333V10.0833C10.75 10.2507 10.6869 10.4046 10.5833 10.5222V10.0833V8.91667V8.41667H10.0833H6.58333C6.41597 8.41667 6.26211 8.35354 6.14447 8.25H6.58333H10.6667ZM10.0833 10.5833H10.5222C10.4046 10.6869 10.2507 10.75 10.0833 10.75H1.91667C1.75382 10.75 1.59712 10.6904 1.47571 10.5833H1.91667H10.0833ZM1.41667 10.5243C1.30958 10.4029 1.25 10.2462 1.25 10.0833V1.91667C1.25 1.75382 1.30958 1.59712 1.41667 1.47571V1.91667V10.0833V10.5243ZM1.91667 1.41667H1.47571C1.59712 1.30958 1.75382 1.25 1.91667 1.25H10.0833C10.2507 1.25 10.4046 1.31313 10.5222 1.41667H10.0833H1.91667ZM6.08333 7.75V8.18886C5.9798 8.07122 5.91667 7.91736 5.91667 7.75V4.25C5.91667 4.08264 5.9798 3.92878 6.08333 3.81114V4.25V7.75Z" fill="#433D4A" stroke="#433D4A"/>
</svg>
